<?xml version="1.0" encoding="UTF-8"?>
<svg id="Layer_1" data-name="Layer 1" xmlns="http://www.w3.org/2000/svg" viewBox="0 0 134.96 169.65">
  <defs>
    <style>
      .cls-1 {
        fill: #009d4d;
      }

      .cls-1, .cls-2 {
        stroke-width: 0px;
      }

      .cls-2 {
        fill: #fff;
      }
    </style>
  </defs>
  <path class="cls-1" d="M0,0v86.01c0,56.74,67.48,83.64,67.48,83.64h0c.07-.03,67.48-26.93,67.48-83.64V0H0Z"/>
  <g>
    <polygon class="cls-2" points="89.02 52.78 95.55 46.24 67.48 18.16 39.4 46.24 45.94 52.78 67.48 31.24 89.02 52.78"/>
    <polygon class="cls-2" points="22.42 42.34 9.25 55.51 9.25 68.59 22.42 55.42 54.39 87.39 60.93 80.85 22.42 42.34"/>
    <path class="cls-2" d="M125.71,55.52l-13.18-13.18-60.61,60.61h0c-4.3,4.11-6.98,9.9-6.98,16.31,0,12.43,10.11,22.54,22.54,22.54s22.54-10.11,22.54-22.54c0-6.33-2.63-12.06-6.85-16.16h0s-2.62-2.62-2.62-2.62l-6.54,6.54,2.85,2.87c2.41,2.4,3.9,5.72,3.9,9.38,0,7.33-5.96,13.29-13.29,13.29s-13.29-5.96-13.29-13.29c0-3.69,1.52-7.04,3.96-9.45h0s54.39-54.39,54.39-54.39h0s13.18,13.18,13.18,13.18v-13.08Z"/>
  </g>
</svg>