<?xml version="1.0" encoding="UTF-8"?>
<svg id="Layer_1" data-name="Layer 1" xmlns="http://www.w3.org/2000/svg" viewBox="0 0 584.45 169.65">
  <defs>
    <style>
      .cls-1 {
        fill: #fff;
      }

      .cls-1, .cls-2, .cls-3 {
        stroke-width: 0px;
      }

      .cls-2 {
        fill: #181716;
      }

      .cls-3 {
        fill: #009d4d;
      }
    </style>
  </defs>
  <g>
    <path class="cls-3" d="M0,0v86.01c0,56.74,67.48,83.64,67.48,83.64h0c.07-.03,67.48-26.93,67.48-83.64V0H0Z"/>
    <g>
      <polygon class="cls-1" points="89.02 52.78 95.55 46.24 67.48 18.16 39.4 46.24 45.94 52.78 67.48 31.24 89.02 52.78"/>
      <polygon class="cls-1" points="22.42 42.34 9.25 55.51 9.25 68.59 22.42 55.42 54.39 87.39 60.93 80.85 22.42 42.34"/>
      <path class="cls-1" d="M125.71,55.52l-13.18-13.18-60.61,60.61h0c-4.3,4.11-6.98,9.9-6.98,16.31,0,12.43,10.11,22.54,22.54,22.54s22.54-10.11,22.54-22.54c0-6.33-2.63-12.06-6.85-16.16h0s-2.62-2.62-2.62-2.62l-6.54,6.54,2.85,2.87c2.41,2.4,3.9,5.72,3.9,9.38,0,7.33-5.96,13.29-13.29,13.29s-13.29-5.96-13.29-13.29c0-3.69,1.52-7.04,3.96-9.45h0s54.39-54.39,54.39-54.39h0s13.18,13.18,13.18,13.18v-13.08Z"/>
    </g>
  </g>
  <g>
    <rect class="cls-2" x="180.08" y="18.15" width="9.93" height="59.38"/>
    <path class="cls-2" d="M245.79,77.53v-27.43c0-5.83-1.56-10.29-4.67-13.38-3.11-3.08-7.19-4.63-12.24-4.63-3.08,0-5.96.79-8.62,2.36-2.66,1.57-4.75,3.73-6.27,6.48v-8.16h-9.42v44.76h9.42v-24.23c0-4.15,1.21-7.31,3.62-9.47,2.41-2.16,5.24-3.24,8.5-3.24,6.84,0,10.26,4.12,10.26,12.37v24.57h9.42Z"/>
    <path class="cls-2" d="M268.34,53.3c0-4.15,1.21-7.31,3.62-9.47,2.41-2.16,5.24-3.24,8.5-3.24,6.84,0,10.26,4.12,10.26,12.37v24.57h9.42v-27.43c0-5.83-1.56-10.29-4.67-13.38-3.11-3.08-7.19-4.63-12.24-4.63-3.08,0-5.96.79-8.62,2.36-2.66,1.57-4.75,3.73-6.27,6.48v-8.16h-9.42v44.76h9.42v-24.23Z"/>
    <path class="cls-2" d="M335.99,74.51l-4.12-6.9c-.84,1.4-2.25,2.1-4.21,2.1-3.37,0-5.05-2.24-5.05-6.73V18.33h-9.42v45.75c0,4.71,1.22,8.27,3.66,10.68,2.44,2.41,5.68,3.62,9.72,3.62s7.18-1.29,9.42-3.87Z"/>
    <path class="cls-2" d="M376.47,36.09c-3.34-2.66-7.64-4-12.92-4-6.9,0-13.07,2.16-18.51,6.48l4.2,5.89c4.49-3.03,8.8-4.54,12.96-4.54,6.62,0,9.93,2.97,9.93,8.92v1.68h-12.2c-5.55,0-9.96,1.1-13.21,3.28-3.25,2.19-4.88,5.48-4.88,9.88s1.53,7.93,4.58,10.56c3.06,2.64,6.91,3.95,11.57,3.95,6.23,0,11.19-2.22,14.89-6.65v5.97h8.58v-28.86c0-5.72-1.67-9.91-5.01-12.58ZM372.05,60.87c0,2.86-1.12,5.13-3.37,6.82-2.24,1.68-4.86,2.52-7.86,2.52s-5.34-.58-7.03-1.73c-1.68-1.15-2.52-2.82-2.52-5.01,0-4.26,3.39-6.39,10.18-6.39h10.6v3.79Z"/>
    <path class="cls-2" d="M419.51,32.1c-3.08,0-5.96.79-8.62,2.36-2.66,1.57-4.75,3.73-6.27,6.48v-8.16h-9.42v44.76h9.42v-24.23c0-4.15,1.21-7.31,3.62-9.47,2.41-2.16,5.24-3.24,8.5-3.24,6.84,0,10.26,4.12,10.26,12.37v24.57h9.42v-27.43c0-5.83-1.56-10.29-4.67-13.38-3.11-3.08-7.19-4.63-12.24-4.63Z"/>
    <path class="cls-2" d="M492.27,77.53V14.54h-9.42v25.13c-3.65-5.05-8.46-7.57-14.43-7.57s-11.12,2.07-15.44,6.23c-4.32,4.15-6.48,9.7-6.48,16.66s2.1,12.56,6.31,16.83c4.21,4.26,9.14,6.4,14.81,6.4,6.67,0,11.75-2.47,15.23-7.4v6.73h9.42ZM479.15,65.79c-2.58,2.72-5.72,4.08-9.42,4.08s-6.93-1.35-9.67-4.04c-2.75-2.69-4.12-6.18-4.12-10.48s1.35-7.87,4.04-10.73c2.69-2.86,5.92-4.29,9.67-4.29s6.93,1.43,9.51,4.29c2.58,2.86,3.87,6.42,3.87,10.68s-1.29,7.75-3.87,10.48Z"/>
    <path class="cls-2" d="M525.07,78.2c7.74,0,14.02-2.5,18.85-7.49l-5.39-5.89c-2.92,3.53-7.18,5.3-12.79,5.3-3.54,0-6.68-.99-9.42-2.99s-4.23-4.61-4.46-7.87h35.08v-6.48c0-6.45-2.13-11.51-6.39-15.19-4.26-3.67-9.44-5.51-15.52-5.51s-11.37,2.07-15.86,6.23c-4.49,4.15-6.73,9.75-6.73,16.78s2.2,12.65,6.6,16.83c4.4,4.18,9.75,6.27,16.03,6.27ZM515.98,43.33c2.75-2.11,5.85-3.16,9.29-3.16s6.35,1.01,8.71,3.03c2.36,2.02,3.53,4.91,3.53,8.66h-25.66c0-3.59,1.37-6.44,4.12-8.54Z"/>
    <path class="cls-2" d="M558.96,62.81c0,4.71,1.41,8.46,4.25,11.23,2.83,2.78,6.25,4.17,10.26,4.17s7.67-1.49,10.98-4.46l-3.87-6.64c-1.85,1.96-3.79,2.94-5.81,2.94s-3.59-.63-4.71-1.89c-1.12-1.26-1.68-2.96-1.68-5.09v-22.72h12.18v-7.57h-12.18v-14.62h-9.42v14.62h-5.64v7.57h5.64v22.46Z"/>
    <path class="cls-2" d="M188.28,95.52c-1.45,0-2.82.36-4.07,1.07-1.26.71-2.27,1.75-3.01,3.08-.74,1.33-1.11,2.88-1.11,4.62v2.11h-3.24v3.37h3.24v22.77h4.04v-22.77h6.18v-3.37h-6.18v-2.5c0-1.45.41-2.58,1.26-3.44.85-.86,1.87-1.28,3.12-1.28,1.03,0,2.1.29,3.19.87l.43.23,1.06-3.39-.29-.16c-1.44-.8-3-1.21-4.65-1.21Z"/>
    <path class="cls-2" d="M206.96,127.45l-8.32-20.8-.1-.25h-4.31l10.66,25.6-1,2.45c-.52,1.22-1.18,2.16-1.96,2.8-.77.62-1.61.92-2.55.92-1.2,0-2.34-.37-3.4-1.09l-.36-.25-1.85,3.2.28.22c1.58,1.21,3.42,1.82,5.47,1.82,1.73,0,3.28-.53,4.62-1.58,1.32-1.04,2.4-2.58,3.2-4.57l11.93-29.52h-4.21l-8.1,21.06Z"/>
    <polygon class="cls-2" points="262.98 106.39 257.99 106.39 244.92 119.64 244.92 95.85 240.88 95.85 240.88 132.54 244.92 132.54 244.92 124.95 250.17 119.57 259.01 132.54 263.9 132.54 253.02 116.66 262.98 106.39"/>
    <path class="cls-2" d="M280.49,106.3c-2.44,0-4.67.56-6.63,1.67-1.96,1.11-3.51,2.69-4.63,4.7-1.11,2-1.67,4.29-1.67,6.8s.56,4.84,1.67,6.82c1.11,1.99,2.67,3.56,4.63,4.67,1.95,1.11,4.22,1.67,6.73,1.67,2.11,0,4.07-.38,5.84-1.12,1.77-.74,3.31-1.81,4.56-3.17l.26-.28-2.4-2.41-.29.3c-.96,1.02-2.12,1.81-3.44,2.37-1.33.56-2.79.84-4.34.84-2.49,0-4.61-.8-6.3-2.38-1.59-1.49-2.54-3.46-2.83-5.85h21.07l.02-.39c.16-4.3-.83-7.79-2.95-10.35-2.13-2.59-5.26-3.9-9.3-3.9ZM271.66,117.61c.31-2.29,1.24-4.17,2.77-5.59,1.63-1.5,3.68-2.26,6.11-2.26s4.47.75,5.98,2.23c1.43,1.4,2.26,3.29,2.48,5.62h-17.34Z"/>
    <path class="cls-2" d="M315.08,118.88c-1.11-.5-2.56-1.02-4.31-1.54-1.39-.41-2.49-.78-3.27-1.12-.74-.31-1.36-.73-1.85-1.24-.46-.47-.68-1.08-.68-1.85,0-1.12.42-1.94,1.29-2.49.91-.58,2.14-.88,3.67-.88,1.12,0,2.27.17,3.42.49,1.15.33,2.2.79,3.14,1.38l.37.24,1.63-3.19-.31-.2c-1.09-.69-2.35-1.25-3.73-1.64-1.39-.4-2.84-.6-4.32-.6-2.55,0-4.72.59-6.44,1.76-1.77,1.2-2.67,3-2.67,5.36,0,1.57.41,2.87,1.2,3.85.78.97,1.74,1.71,2.85,2.22,1.08.49,2.49,1,4.21,1.52,1.46.46,2.57.84,3.37,1.17.76.31,1.4.75,1.91,1.3.48.53.71,1.19.71,2.03,0,1.22-.47,2.12-1.44,2.76-1.01.66-2.34,1-3.96,1-1.49,0-2.98-.28-4.42-.84-1.45-.56-2.71-1.33-3.77-2.29l-.37-.34-1.71,3.03.22.22c1.2,1.16,2.69,2.07,4.45,2.7,1.74.63,3.57.94,5.46.94,2.68,0,4.96-.63,6.76-1.88,1.85-1.28,2.78-3.16,2.78-5.58,0-1.63-.42-2.98-1.25-4-.81-.99-1.8-1.76-2.95-2.29Z"/>
    <polygon class="cls-2" points="349.31 106.39 344.32 106.39 331.26 119.64 331.26 95.85 327.21 95.85 327.21 132.54 331.26 132.54 331.26 124.95 336.51 119.57 345.34 132.54 350.24 132.54 339.36 116.66 349.31 106.39"/>
    <path class="cls-2" d="M373.63,107.97c-1.99-1.11-4.27-1.67-6.77-1.67s-4.78.56-6.77,1.67c-1.99,1.11-3.57,2.69-4.7,4.67-1.13,1.99-1.7,4.27-1.7,6.78s.57,4.84,1.7,6.84c1.13,2.01,2.71,3.59,4.7,4.7,1.99,1.11,4.26,1.67,6.77,1.67s4.79-.56,6.77-1.67c1.99-1.11,3.57-2.69,4.7-4.7,1.12-2,1.69-4.3,1.69-6.84s-.57-4.79-1.7-6.78c-1.13-1.99-2.71-3.56-4.7-4.67ZM374.81,124.5c-.76,1.44-1.85,2.57-3.23,3.37-1.38.8-2.97,1.2-4.73,1.2s-3.35-.41-4.73-1.2c-1.38-.8-2.47-1.93-3.23-3.37-.77-1.45-1.16-3.14-1.16-5.03s.39-3.53,1.16-4.99c.77-1.44,1.86-2.57,3.23-3.37,1.38-.8,2.97-1.2,4.73-1.2s3.35.41,4.73,1.2c1.38.8,2.47,1.93,3.23,3.37.77,1.45,1.16,3.13,1.16,4.99s-.39,3.58-1.16,5.03Z"/>
    <path class="cls-2" d="M420.16,106.3c-2.59.04-4.8.64-6.57,1.81-1.5.98-2.66,2.38-3.47,4.18-.61-1.71-1.61-3.09-2.98-4.12-1.66-1.24-3.77-1.87-6.27-1.87-2.45.04-4.56.57-6.27,1.61-1.27.77-2.33,1.83-3.14,3.16v-4.67h-4.05v26.14h4.05v-12.88c0-2.85.75-5.17,2.23-6.89,1.46-1.7,3.51-2.6,6.08-2.66,2.16,0,3.88.63,5.1,1.88,1.22,1.26,1.84,3.06,1.84,5.35v15.2h4.09v-12.88c0-2.85.74-5.17,2.2-6.89,1.45-1.71,3.49-2.6,6.05-2.66,2.16,0,3.88.63,5.1,1.88,1.22,1.26,1.84,3.06,1.84,5.35v15.2h4.09v-15.97c0-3.19-.88-5.72-2.63-7.53-1.75-1.81-4.2-2.73-7.31-2.73Z"/>
    <path class="cls-2" d="M471.95,106.3c-2.59.04-4.8.64-6.57,1.81-1.5.98-2.66,2.38-3.47,4.18-.61-1.71-1.61-3.09-2.98-4.12-1.66-1.24-3.77-1.87-6.27-1.87-2.45.04-4.56.57-6.27,1.61-1.27.77-2.33,1.83-3.14,3.16v-4.67h-4.05v26.14h4.05v-12.88c0-2.85.75-5.17,2.23-6.89,1.46-1.7,3.51-2.6,6.08-2.66,2.16,0,3.88.63,5.1,1.88,1.22,1.26,1.84,3.06,1.84,5.35v15.2h4.09v-12.88c0-2.85.74-5.17,2.2-6.89,1.45-1.71,3.49-2.6,6.05-2.66,2.16,0,3.88.63,5.1,1.88,1.22,1.26,1.84,3.06,1.84,5.35v15.2h4.09v-15.97c0-3.19-.88-5.72-2.63-7.53-1.75-1.81-4.2-2.73-7.31-2.73Z"/>
    <path class="cls-2" d="M510.01,119.22c0,2.85-.75,5.18-2.22,6.92-1.46,1.72-3.51,2.61-6.08,2.64-2.17,0-3.88-.63-5.1-1.88-1.23-1.25-1.85-3.04-1.85-5.3v-15.2h-4.09v15.97c0,3.16.89,5.68,2.65,7.51,1.76,1.83,4.23,2.76,7.33,2.76,2.42-.03,4.51-.59,6.23-1.66,1.27-.79,2.32-1.86,3.13-3.2v4.76h4.1v-26.14h-4.1v12.83Z"/>
    <path class="cls-2" d="M545.54,109.05c-1.79-1.83-4.29-2.75-7.42-2.75-2.48.04-4.62.57-6.36,1.6-1.31.78-2.4,1.84-3.24,3.18v-4.68h-4.05v26.14h4.05v-14c.21-2.57,1.08-4.63,2.57-6.13,1.48-1.5,3.49-2.27,5.98-2.3,2.23,0,3.99.64,5.22,1.91,1.24,1.27,1.87,3.06,1.87,5.33v15.2h4.09v-15.97c0-3.16-.91-5.68-2.7-7.51h0Z"/>
    <path class="cls-2" d="M568.3,106.3c-2.44,0-4.67.56-6.63,1.67-1.96,1.11-3.51,2.69-4.63,4.7-1.11,2-1.67,4.29-1.67,6.8s.56,4.84,1.67,6.82c1.11,1.99,2.67,3.56,4.63,4.67,1.95,1.11,4.22,1.67,6.73,1.67,2.11,0,4.07-.38,5.84-1.12,1.77-.74,3.31-1.81,4.56-3.17l.26-.28-2.4-2.41-.29.3c-.96,1.02-2.11,1.81-3.44,2.37-1.33.56-2.79.84-4.34.84-2.49,0-4.61-.8-6.3-2.38-1.59-1.49-2.54-3.46-2.83-5.85h21.07l.02-.39c.16-4.3-.83-7.79-2.95-10.35-2.13-2.59-5.26-3.9-9.3-3.9ZM559.46,117.61c.31-2.29,1.24-4.17,2.77-5.59,1.63-1.5,3.68-2.26,6.11-2.26s4.47.75,5.98,2.23c1.43,1.4,2.26,3.29,2.48,5.62h-17.34Z"/>
    <path class="cls-2" d="M232.56,128c-.77.56-1.52.88-2.23.88-.89,0-2.06-.29-2.06-2.79v-30.24h-4.05v30.57c0,1.96.49,3.51,1.46,4.6.98,1.1,2.3,1.66,3.93,1.66,1.37,0,2.84-.56,4.39-1.67l.23-.17-.03-.11-1.64-2.74Z"/>
  </g>
</svg>